<svg width="37" height="46" viewBox="0 0 37 46" fill="none" xmlns="http://www.w3.org/2000/svg">
<path d="M13.0002 24.525H20.8252V23.025H13.0002V24.525ZM13.0002 21.275H25.0002V19.775H13.0002V21.275ZM13.0002 18.025H25.0002V16.525H13.0002V18.025ZM9.00024 32.5V14C9.00024 13.6167 9.15024 13.2708 9.45024 12.9625C9.75024 12.6542 10.1002 12.5 10.5002 12.5H27.5002C27.8836 12.5 28.2294 12.6542 28.5377 12.9625C28.8461 13.2708 29.0002 13.6167 29.0002 14V27C29.0002 27.3833 28.8461 27.7292 28.5377 28.0375C28.2294 28.3458 27.8836 28.5 27.5002 28.5H13.0002L9.00024 32.5ZM10.5002 28.875L12.3752 27H27.5002V14H10.5002V28.875Z" fill="#949494"/>
</svg>
