<svg width="29" height="29" viewBox="0 0 29 29" fill="none" xmlns="http://www.w3.org/2000/svg">
<rect width="28" height="28" transform="translate(0.666504 0.5)" fill="white"/>
<path d="M2.99658 4.08008V25.6634L7.66325 20.9967H24.5799C25.0271 20.9967 25.4306 20.8169 25.7903 20.4572C26.1501 20.0974 26.3299 19.694 26.3299 19.2467V4.08008C26.3299 3.63286 26.1501 3.22938 25.7903 2.86966C25.4306 2.50994 25.0271 2.33008 24.5799 2.33008H4.74658C4.27992 2.33008 3.87158 2.50994 3.52158 2.86966C3.17158 3.22938 2.99658 3.63286 2.99658 4.08008Z" fill="#65D4A5"/>
<path d="M7.66667 20.2497C7.46775 20.2497 7.27699 20.3287 7.13634 20.4693L3.75 23.8557V4.08301C3.75 3.85566 3.83066 3.63393 4.06254 3.39561C4.28318 3.16884 4.50218 3.08301 4.75 3.08301H24.5833C24.8037 3.08301 25.0233 3.16281 25.2634 3.40292C25.5035 3.64304 25.5833 3.8626 25.5833 4.08301V19.2497C25.5833 19.4701 25.5035 19.6896 25.2634 19.9298C25.0233 20.1699 24.8037 20.2497 24.5833 20.2497H7.66667ZM4 21.4372C4 21.7405 4.18273 22.014 4.46299 22.1301C4.74324 22.2462 5.06583 22.182 5.28033 21.9675L7.24816 19.9997H24.5833C24.9975 19.9997 25.3333 19.6639 25.3333 19.2497V4.08301C25.3333 3.66879 24.9975 3.33301 24.5833 3.33301H4.75C4.33579 3.33301 4 3.66879 4 4.08301V21.4372ZM16.0458 15.3622V15.6122H8.41667V15.3622H16.0458ZM20.9167 11.8205H8.41667V11.5705H20.9167V11.8205ZM20.9167 8.02884H8.41667V7.77884H20.9167V8.02884Z" fill="#65D4A5" stroke="#65D4A5" stroke-width="1.5" stroke-linejoin="round"/>
<path d="M16.6292 16.0003H7.5V14.2503H16.6292V16.0003Z" fill="white"/>
<path d="M21.5 12.2087H7.5V10.4587H21.5V12.2087Z" fill="white"/>
<path d="M21.5 8.41699H7.5V6.66699H21.5V8.41699Z" fill="white"/>
</svg>
