<svg width="24" height="24" viewBox="0 0 24 24" fill="none" xmlns="http://www.w3.org/2000/svg">
<path d="M6 15.025H13.825V13.525H6V15.025ZM6 11.775H18V10.275H6V11.775ZM6 8.525H18V7.025H6V8.525ZM2 23V4.5C2 4.11667 2.15 3.77083 2.45 3.4625C2.75 3.15417 3.1 3 3.5 3H20.5C20.8833 3 21.2292 3.15417 21.5375 3.4625C21.8458 3.77083 22 4.11667 22 4.5V17.5C22 17.8833 21.8458 18.2292 21.5375 18.5375C21.2292 18.8458 20.8833 19 20.5 19H6L2 23ZM3.5 19.375L5.375 17.5H20.5V4.5H3.5V19.375Z" fill="#949494"/>
</svg>
