<svg width="28" height="28" viewBox="0 0 28 28" fill="none" xmlns="http://www.w3.org/2000/svg">
<path d="M3 5.64977V25.997L7.3994 21.5976H23.3472C23.7688 21.5976 24.1492 21.428 24.4883 21.0889C24.8274 20.7498 24.997 20.3694 24.997 19.9478V5.64977C24.997 5.22816 24.8274 4.8478 24.4883 4.50868C24.1492 4.16956 23.7688 4 23.3472 4H4.64977C4.20983 4 3.82489 4.16956 3.49493 4.50868C3.16498 4.8478 3 5.22816 3 5.64977Z" fill="#65D4A5"/>
<path d="M3.75293 24.1892V5.6527C3.75293 5.45097 3.82357 5.25235 4.03541 5.03463C4.236 4.82846 4.43161 4.75293 4.6527 4.75293H23.3501C23.5449 4.75293 23.7414 4.82243 23.9609 5.04194C24.1804 5.26145 24.2499 5.45791 24.2499 5.6527V19.9507C24.2499 20.1455 24.1804 20.342 23.9609 20.5615C23.7414 20.781 23.5449 20.8505 23.3501 20.8505H7.40233C7.20341 20.8505 7.01265 20.9295 6.872 21.0702L3.75293 24.1892ZM3.9027 22.013C3.9027 22.3163 4.08543 22.5898 4.36569 22.7059C4.64595 22.822 4.96853 22.7578 5.18303 22.5433L7.02558 20.7007H23.3501C23.7643 20.7007 24.1001 20.365 24.1001 19.9507V5.6527C24.1001 5.23849 23.7643 4.9027 23.3501 4.9027H4.6527C4.23849 4.9027 3.9027 5.23849 3.9027 5.6527V22.013ZM15.2586 16.3288V16.4786H8.15233V16.3288H15.2586ZM19.8505 12.9041H8.15233V12.7543H19.8505V12.9041ZM19.8505 9.32959H8.15233V9.17982H19.8505V9.32959Z" fill="#65D4A5" stroke="#65D4A5" stroke-width="1.5" stroke-linejoin="round"/>
<path d="M15.8514 16.8867H7.24512V15.2369H15.8514V16.8867Z" fill="white"/>
<path d="M20.4433 13.3122H7.24512V11.6624H20.4433V13.3122Z" fill="white"/>
<path d="M20.4433 9.73766H7.24512V8.08789H20.4433V9.73766Z" fill="white"/>
</svg>
