<svg width="36" height="46" viewBox="0 0 36 46" fill="none" xmlns="http://www.w3.org/2000/svg">
<path d="M7.94 21.3007C7.94 20.9917 8.07481 20.6981 8.30915 20.4968L17.8091 12.3331C18.2064 11.9917 18.7936 11.9917 19.1909 12.3331L28.6908 20.4968C28.9252 20.6981 29.06 20.9917 29.06 21.3007L29.06 33.56H23.7525V28.8529C23.7525 27.4748 23.1949 26.1567 22.2081 25.1875L21.5494 25.8581L22.2081 25.1875C21.2218 24.2189 19.8876 23.6776 18.5 23.6776C17.1124 23.6776 15.7782 24.2189 14.792 25.1875C13.8051 26.1567 13.2475 27.4748 13.2475 28.8529V33.56H7.94001L7.94 21.3007Z" stroke="#949494" stroke-width="1.88" stroke-linecap="round" stroke-linejoin="round"/>
</svg>
