<svg width="30" height="28" viewBox="0 0 30 28" fill="none" xmlns="http://www.w3.org/2000/svg">
<path d="M13.0327 24.775C19.6783 24.775 25.0656 19.4528 25.0656 12.8875C25.0656 6.32222 19.6783 1 13.0327 1C6.38708 1 0.999756 6.32222 0.999756 12.8875C0.999756 19.4528 6.38708 24.775 13.0327 24.775Z" fill="#65D4A5" stroke="#65D4A5" stroke-width="2" stroke-miterlimit="10" stroke-linecap="round"/>
<path d="M1.73315 16.9766C1.73315 16.9766 5.69755 4.40762 19.3459 2.76855" stroke="white" stroke-width="2" stroke-miterlimit="10" stroke-linecap="round"/>
<path d="M6.74536 23.0152C6.74536 23.0152 9.56585 11.1277 23.3365 6.74536" stroke="white" stroke-width="2" stroke-miterlimit="10" stroke-linecap="round"/>
<path d="M15.8621 10.446C18.5325 13.1503 21.029 16.0171 23.3368 19.0296" stroke="white" stroke-width="2" stroke-miterlimit="10" stroke-linecap="round"/>
<path d="M10.5352 15.605L18.6648 23.3862" stroke="white" stroke-width="2" stroke-miterlimit="10" stroke-linecap="round"/>
<path d="M13.0327 24.775C19.6783 24.775 25.0656 19.4528 25.0656 12.8875C25.0656 6.32222 19.6783 1 13.0327 1C6.38708 1 0.999756 6.32222 0.999756 12.8875C0.999756 19.4528 6.38708 24.775 13.0327 24.775Z" stroke="#65D4A5" stroke-width="2" stroke-miterlimit="10" stroke-linecap="round"/>
<path d="M22.8303 19.9009C22.8303 19.9009 21.8872 24.8439 27.9997 25.9999L22.8303 19.9009Z" fill="white"/>
<path d="M22.8303 19.9009C22.8303 19.9009 21.8872 24.8439 27.9997 25.9999" stroke="#65D4A5" stroke-width="2" stroke-miterlimit="10" stroke-linecap="square"/>
</svg>
