<svg width="28" height="28" viewBox="0 0 28 28" fill="none" xmlns="http://www.w3.org/2000/svg">
<path d="M12.8046 23.3722C18.2196 23.3722 22.6092 19.0356 22.6092 13.6861C22.6092 8.33662 18.2196 4 12.8046 4C7.38968 4 3 8.33662 3 13.6861C3 19.0356 7.38968 23.3722 12.8046 23.3722Z" fill="#65D4A5" stroke="#65D4A5" stroke-width="2" stroke-miterlimit="10" stroke-linecap="round"/>
<path d="M3.59766 17.0183C3.59766 17.0183 6.8279 6.77694 17.9488 5.44141" stroke="white" stroke-width="2" stroke-miterlimit="10" stroke-linecap="round"/>
<path d="M7.68164 21.9385C7.68164 21.9385 9.97982 12.2524 21.2003 8.68164" stroke="white" stroke-width="2" stroke-miterlimit="10" stroke-linecap="round"/>
<path d="M15.1099 11.6973C17.2858 13.9007 19.3199 16.2366 21.2004 18.6912" stroke="white" stroke-width="2" stroke-miterlimit="10" stroke-linecap="round"/>
<path d="M10.77 15.9004L17.3942 22.2406" stroke="white" stroke-width="2" stroke-miterlimit="10" stroke-linecap="round"/>
<path d="M12.8046 23.3722C18.2196 23.3722 22.6092 19.0356 22.6092 13.6861C22.6092 8.33662 18.2196 4 12.8046 4C7.38968 4 3 8.33662 3 13.6861C3 19.0356 7.38968 23.3722 12.8046 23.3722Z" stroke="#65D4A5" stroke-width="2" stroke-miterlimit="10" stroke-linecap="round"/>
<path d="M20.7878 19.4014C20.7878 19.4014 20.0194 23.4291 25 24.371Z" fill="white"/>
<path d="M20.7878 19.4014C20.7878 19.4014 20.0194 23.4291 25 24.371" stroke="#65D4A5" stroke-width="2" stroke-miterlimit="10" stroke-linecap="square"/>
</svg>
