<svg width="24" height="24" viewBox="0 0 24 24" fill="none" xmlns="http://www.w3.org/2000/svg">
<path d="M2.24609 15.2812C2.24609 15.2812 5.37928 5.22603 16.166 3.91478" stroke="#949494" stroke-width="1.5" stroke-miterlimit="10" stroke-linecap="round"/>
<path d="M6.20752 20.1121C6.20752 20.1121 8.43664 10.6021 19.32 7.09627" stroke="#949494" stroke-width="1.5" stroke-miterlimit="10" stroke-linecap="round"/>
<path d="M13.4126 10.0569C15.5231 12.2203 17.4962 14.5138 19.3201 16.9237" stroke="#949494" stroke-width="1.5" stroke-miterlimit="10" stroke-linecap="round"/>
<path d="M9.20264 14.1839L15.6278 20.4089" stroke="#949494" stroke-width="1.5" stroke-miterlimit="10" stroke-linecap="round"/>
<path d="M11.1765 21.52C16.4287 21.52 20.6865 17.2622 20.6865 12.01C20.6865 6.75777 16.4287 2.5 11.1765 2.5C5.92428 2.5 1.6665 6.75777 1.6665 12.01C1.6665 17.2622 5.92428 21.52 11.1765 21.52Z" stroke="#949494" stroke-width="1.5" stroke-miterlimit="10" stroke-linecap="round"/>
<path d="M18.9199 17.6211C18.9199 17.6211 18.1745 21.5755 23.0054 22.5003" stroke="#949494" stroke-width="1.5" stroke-miterlimit="10" stroke-linecap="square"/>
</svg>
