<svg width="30" height="28" viewBox="0 0 30 28" fill="none" xmlns="http://www.w3.org/2000/svg">
<path d="M13.0329 24.775C19.6785 24.775 25.0659 19.4528 25.0659 12.8875C25.0659 6.32222 19.6785 1 13.0329 1C6.38733 1 1 6.32222 1 12.8875C1 19.4528 6.38733 24.775 13.0329 24.775Z" fill="#65D4A5" stroke="#65D4A5" stroke-width="2" stroke-miterlimit="10" stroke-linecap="round"/>
<path d="M1.7334 16.9766C1.7334 16.9766 5.69779 4.40762 19.3462 2.76855" stroke="white" stroke-width="2" stroke-miterlimit="10" stroke-linecap="round"/>
<path d="M6.74561 23.0149C6.74561 23.0149 9.5661 11.1274 23.3367 6.74512" stroke="white" stroke-width="2" stroke-miterlimit="10" stroke-linecap="round"/>
<path d="M15.8623 10.4463C18.5328 13.1506 21.0292 16.0173 23.337 19.0298" stroke="white" stroke-width="2" stroke-miterlimit="10" stroke-linecap="round"/>
<path d="M10.5356 15.605L18.6653 23.3862" stroke="white" stroke-width="2" stroke-miterlimit="10" stroke-linecap="round"/>
<path d="M13.0329 24.775C19.6785 24.775 25.0659 19.4528 25.0659 12.8875C25.0659 6.32222 19.6785 1 13.0329 1C6.38733 1 1 6.32222 1 12.8875C1 19.4528 6.38733 24.775 13.0329 24.775Z" stroke="#65D4A5" stroke-width="2" stroke-miterlimit="10" stroke-linecap="round"/>
<path d="M22.8308 19.9009C22.8308 19.9009 21.8877 24.8439 28.0002 25.9999L22.8308 19.9009Z" fill="white"/>
<path d="M22.8308 19.9009C22.8308 19.9009 21.8877 24.8439 28.0002 25.9999" stroke="#65D4A5" stroke-width="2" stroke-miterlimit="10" stroke-linecap="square"/>
</svg>
