<svg width="18" height="21" viewBox="0 0 18 21" fill="none" xmlns="http://www.w3.org/2000/svg">
<path d="M17.1212 16.6426C16.679 15.5517 16.0374 14.5608 15.2321 13.7251C14.4292 12.887 13.4781 12.2188 12.4313 11.7573C12.4219 11.7524 12.4126 11.75 12.4032 11.7451C13.8633 10.6465 14.8126 8.85693 14.8126 6.83789C14.8126 3.49316 12.211 0.783203 9.00006 0.783203C5.78912 0.783203 3.18756 3.49316 3.18756 6.83789C3.18756 8.85693 4.13678 10.6465 5.59693 11.7476C5.58756 11.7524 5.57818 11.7549 5.56881 11.7598C4.51881 12.2212 3.57662 12.8828 2.76803 13.7275C1.96344 14.5639 1.32194 15.5546 0.878965 16.645C0.443782 17.7125 0.209079 18.857 0.187559 20.0166C0.186933 20.0427 0.191321 20.0686 0.200463 20.0928C0.209605 20.1171 0.223317 20.1392 0.240791 20.1579C0.258264 20.1765 0.279146 20.1914 0.302206 20.2015C0.325265 20.2116 0.350036 20.2168 0.375059 20.2168H1.78131C1.88443 20.2168 1.96647 20.1313 1.96881 20.0264C2.01568 18.1416 2.74225 16.3765 4.02662 15.0386C5.35553 13.6543 7.12037 12.8926 9.00006 12.8926C10.8797 12.8926 12.6446 13.6543 13.9735 15.0386C15.2579 16.3765 15.9844 18.1416 16.0313 20.0264C16.0337 20.1338 16.1157 20.2168 16.2188 20.2168H17.6251C17.6501 20.2168 17.6749 20.2116 17.6979 20.2015C17.721 20.1914 17.7419 20.1765 17.7593 20.1579C17.7768 20.1392 17.7905 20.1171 17.7997 20.0928C17.8088 20.0686 17.8132 20.0427 17.8126 20.0166C17.7891 18.8496 17.5571 17.7144 17.1212 16.6426ZM9.00006 11.0371C7.92428 11.0371 6.91178 10.6001 6.15006 9.80664C5.38834 9.01318 4.96881 7.9585 4.96881 6.83789C4.96881 5.71728 5.38834 4.6626 6.15006 3.86914C6.91178 3.07568 7.92428 2.63867 9.00006 2.63867C10.0758 2.63867 11.0883 3.07568 11.8501 3.86914C12.6118 4.6626 13.0313 5.71728 13.0313 6.83789C13.0313 7.9585 12.6118 9.01318 11.8501 9.80664C11.0883 10.6001 10.0758 11.0371 9.00006 11.0371Z" fill="black" fill-opacity="0.6"/>
</svg>
