<svg width="28" height="28" viewBox="0 0 28 28" fill="none" xmlns="http://www.w3.org/2000/svg">
<path d="M21.0398 17.9719C21.9536 18.8749 22.7136 19.9589 23.2153 21.1377C23.71 22.2959 23.9733 23.5226 23.9999 24.7837C24.0006 24.8118 23.9956 24.8398 23.9852 24.8661C23.9748 24.8923 23.9593 24.9162 23.9395 24.9363C23.9196 24.9565 23.8959 24.9725 23.8698 24.9834C23.8436 24.9944 23.8155 25 23.7871 25H22.1914H21.9695H19.0516H14.1884H7.86626C5.78428 25 6.8279 24.9894 5.92099 25H5.8085H4.21276C4.18437 25 4.15626 24.9944 4.1301 24.9834C4.10393 24.9725 4.08023 24.9565 4.0604 24.9363C4.04058 24.9162 4.02502 24.8923 4.01464 24.8661C4.00427 24.8398 3.99929 24.8118 4 24.7837C4.02442 23.5306 4.29075 22.2939 4.78457 21.1403C5.28724 19.962 6.01517 18.8914 6.92817 17.9877C7.84572 17.0749 8.91486 16.3599 10.1063 15.8613C10.117 15.856 10.1276 15.8534 10.1383 15.8481C8.48135 14.6583 7.40423 12.7245 7.40423 10.5427C7.40423 6.92839 10.3563 4 13.9999 4C17.6435 4 20.5956 6.92839 20.5956 10.5427C20.5956 12.7245 19.5185 14.6583 17.8616 15.8455C19.0494 16.3441 20.1287 17.0662 21.0398 17.9719Z" fill="#65D4A5"/>
</svg>
