<svg width="24" height="25" viewBox="0 0 24 25" fill="none" xmlns="http://www.w3.org/2000/svg">
<rect width="24" height="25" fill="#FFA3A3"/>
<path d="M20.1212 18.6426C19.679 17.5517 19.0374 16.5608 18.2321 15.7251C17.4292 14.887 16.4781 14.2188 15.4313 13.7573C15.4219 13.7524 15.4126 13.75 15.4032 13.7451C16.8633 12.6465 17.8126 10.8569 17.8126 8.83789C17.8126 5.49316 15.211 2.7832 12.0001 2.7832C8.78912 2.7832 6.18756 5.49316 6.18756 8.83789C6.18756 10.8569 7.13678 12.6465 8.59693 13.7476C8.58756 13.7524 8.57818 13.7549 8.56881 13.7598C7.51881 14.2212 6.57662 14.8828 5.76803 15.7275C4.96344 16.5639 4.32194 17.5546 3.87896 18.645C3.44378 19.7125 3.20908 20.857 3.18756 22.0166C3.18693 22.0427 3.19132 22.0686 3.20046 22.0928C3.20961 22.1171 3.22332 22.1392 3.24079 22.1579C3.25826 22.1765 3.27915 22.1914 3.30221 22.2015C3.32527 22.2116 3.35004 22.2168 3.37506 22.2168H4.78131C4.88443 22.2168 4.96646 22.1313 4.96881 22.0264C5.01568 20.1416 5.74225 18.3765 7.02662 17.0386C8.35553 15.6543 10.1204 14.8926 12.0001 14.8926C13.8797 14.8926 15.6446 15.6543 16.9735 17.0386C18.2579 18.3765 18.9844 20.1416 19.0313 22.0264C19.0337 22.1338 19.1157 22.2168 19.2188 22.2168H20.6251C20.6501 22.2168 20.6749 22.2116 20.6979 22.2015C20.721 22.1914 20.7419 22.1765 20.7593 22.1579C20.7768 22.1392 20.7905 22.1171 20.7997 22.0928C20.8088 22.0686 20.8132 22.0427 20.8126 22.0166C20.7891 20.8496 20.5571 19.7144 20.1212 18.6426ZM12.0001 13.0371C10.9243 13.0371 9.91178 12.6001 9.15006 11.8066C8.38834 11.0132 7.96881 9.9585 7.96881 8.83789C7.96881 7.71728 8.38834 6.6626 9.15006 5.86914C9.91178 5.07568 10.9243 4.63867 12.0001 4.63867C13.0758 4.63867 14.0883 5.07568 14.8501 5.86914C15.6118 6.6626 16.0313 7.71728 16.0313 8.83789C16.0313 9.9585 15.6118 11.0132 14.8501 11.8066C14.0883 12.6001 13.0758 13.0371 12.0001 13.0371Z" fill="black" fill-opacity="0.6"/>
</svg>
