<svg width="36" height="46" viewBox="0 0 36 46" fill="none" xmlns="http://www.w3.org/2000/svg">
<path d="M26.1212 29.1426C25.679 28.0517 25.0374 27.0608 24.2321 26.2251C23.4292 25.387 22.4781 24.7188 21.4313 24.2573C21.4219 24.2524 21.4126 24.25 21.4032 24.2451C22.8633 23.1465 23.8126 21.3569 23.8126 19.3379C23.8126 15.9932 21.211 13.2832 18.0001 13.2832C14.7891 13.2832 12.1876 15.9932 12.1876 19.3379C12.1876 21.3569 13.1368 23.1465 14.5969 24.2476C14.5876 24.2524 14.5782 24.2549 14.5688 24.2598C13.5188 24.7212 12.5766 25.3828 11.768 26.2275C10.9634 27.0639 10.3219 28.0546 9.87896 29.145C9.44378 30.2125 9.20908 31.357 9.18756 32.5166C9.18693 32.5427 9.19132 32.5686 9.20046 32.5928C9.20961 32.6171 9.22332 32.6392 9.24079 32.6579C9.25826 32.6765 9.27915 32.6914 9.30221 32.7015C9.32527 32.7116 9.35004 32.7168 9.37506 32.7168H10.7813C10.8844 32.7168 10.9665 32.6313 10.9688 32.5264C11.0157 30.6416 11.7422 28.8765 13.0266 27.5386C14.3555 26.1543 16.1204 25.3926 18.0001 25.3926C19.8797 25.3926 21.6446 26.1543 22.9735 27.5386C24.2579 28.8765 24.9844 30.6416 25.0313 32.5264C25.0337 32.6338 25.1157 32.7168 25.2188 32.7168H26.6251C26.6501 32.7168 26.6749 32.7116 26.6979 32.7015C26.721 32.6914 26.7419 32.6765 26.7593 32.6579C26.7768 32.6392 26.7905 32.6171 26.7997 32.5928C26.8088 32.5686 26.8132 32.5427 26.8126 32.5166C26.7891 31.3496 26.5571 30.2144 26.1212 29.1426ZM18.0001 23.5371C16.9243 23.5371 15.9118 23.1001 15.1501 22.3066C14.3883 21.5132 13.9688 20.4585 13.9688 19.3379C13.9688 18.2173 14.3883 17.1626 15.1501 16.3691C15.9118 15.5757 16.9243 15.1387 18.0001 15.1387C19.0758 15.1387 20.0883 15.5757 20.8501 16.3691C21.6118 17.1626 22.0313 18.2173 22.0313 19.3379C22.0313 20.4585 21.6118 21.5132 20.8501 22.3066C20.0883 23.1001 19.0758 23.5371 18.0001 23.5371Z" fill="#949494"/>
</svg>
