<svg width="26" height="26" viewBox="0 0 26 26" fill="none" xmlns="http://www.w3.org/2000/svg">
<g clip-path="url(#clip0_682_55254)">
<path d="M25.9373 11.6863C25.8728 11.1341 25.8465 10.5741 25.7373 10.031C25.6047 9.37133 25.4355 8.71455 25.2234 8.07629C24.8529 6.96054 24.3118 5.92633 23.5746 5.00548C23.2553 4.60661 22.9317 4.20611 22.5696 3.84719C21.8143 3.09881 20.9723 2.45762 20.0536 1.91843C19.0963 1.3565 18.0919 0.901108 17.0244 0.600979C16.436 0.435648 15.8349 0.310918 15.2345 0.19431C14.8724 0.124149 14.5002 0.10531 14.1329 0.0617848C14.1161 0.0598359 14.1008 0.0426207 14.0849 0.0322266C13.5102 0.0325514 12.9354 0.0325514 12.3606 0.0325514C12.2319 0.0533396 12.1038 0.0819234 11.9741 0.0939415C11.3501 0.152084 10.7442 0.295652 10.1447 0.473001C9.40689 0.690953 8.7021 0.990757 8.02098 1.34643C7.30743 1.71932 6.63182 2.1549 5.98734 2.6366C5.65796 2.88281 5.33215 3.13649 5.02741 3.41193C4.48407 3.9037 3.93943 4.39645 3.42916 4.92168C2.73993 5.6314 2.14569 6.4194 1.63217 7.26879C1.17701 8.02204 0.80322 8.81069 0.537709 9.65034C0.346113 10.2568 0.207684 10.8736 0.126961 11.5067C0.0465618 12.1381 0.0121977 12.7715 0.0439683 13.4039C0.0802776 14.1234 0.146736 14.8406 0.280302 15.5529C0.465415 16.54 0.754916 17.4881 1.17377 18.3993C1.52033 19.1525 1.95344 19.8502 2.45561 20.5102C2.87674 21.0634 3.35362 21.5636 3.86325 22.0278C4.54664 22.6501 5.29519 23.19 6.09464 23.6613C7.04257 24.2203 8.03751 24.6656 9.0801 25.0112C9.78943 25.2464 10.5153 25.414 11.2506 25.5364C11.5747 25.5903 11.9061 25.6033 12.2338 25.6365C12.2559 25.6387 12.2763 25.6563 12.2974 25.6663C12.8721 25.6663 13.4469 25.6663 14.0217 25.6663C14.1556 25.6456 14.2889 25.6163 14.4237 25.6053C15.2961 25.5342 16.1384 25.3204 16.9599 25.033C17.8786 24.7111 18.7598 24.2999 19.5741 23.761C20.0948 23.4167 20.6099 23.0626 21.1088 22.6878C21.4178 22.4555 21.6956 22.1804 21.9796 21.9157C22.1913 21.7182 22.3942 21.511 22.5943 21.3015C23.2388 20.6249 23.7951 19.8807 24.2726 19.0778C24.7822 18.2209 25.1995 17.3205 25.4637 16.3581C25.6164 15.802 25.7279 15.2342 25.8384 14.6678C25.8935 14.3858 25.9052 14.0951 25.9383 13.8086C25.9402 13.7917 25.9574 13.7765 25.9678 13.7606C25.9678 13.1009 25.9678 12.4412 25.9678 11.7815C25.9574 11.7496 25.9412 11.7188 25.9373 11.6863ZM17.333 11.6249C17.333 11.6249 16.448 11.4657 15.8125 11.4657C14.3602 11.4657 14.0198 12.2615 14.0198 13.4439V18.446H10.0938V8.25981H14.0198V9.96509C14.4963 8.53265 15.4495 8.03244 17.333 8.03244V11.6249Z" fill="white"/>
</g>
<defs>
<clipPath id="clip0_682_55254">
<rect width="26" height="26" fill="white"/>
</clipPath>
</defs>
</svg>
