<svg width="35" height="35" viewBox="0 0 35 35" fill="none" xmlns="http://www.w3.org/2000/svg">
<path d="M23.0174 21.5835V21.9977L23.3103 22.2906L24.8153 23.7956C24.8508 23.8311 24.8599 23.8588 24.8634 23.879C24.8678 23.9049 24.8655 23.94 24.8499 23.9777C24.8342 24.0154 24.8107 24.0423 24.7885 24.058C24.7709 24.0704 24.7442 24.0835 24.6941 24.0835H9.32906C9.27907 24.0835 9.25413 24.0705 9.23874 24.0596C9.21872 24.0454 9.19645 24.0201 9.18143 23.9834C9.16641 23.9466 9.16392 23.9111 9.16875 23.8838C9.17263 23.8617 9.18286 23.8322 9.2195 23.7956L10.7245 22.2906L11.0174 21.9977V21.5835V15.7502C11.0174 12.5056 12.7034 10.012 15.4979 9.34989L16.2674 9.16758V8.37683V7.5835C16.2674 7.16745 16.6013 6.8335 17.0174 6.8335C17.4334 6.8335 17.7674 7.16745 17.7674 7.5835V8.37683V9.16694L18.5361 9.34971C21.3203 10.0117 23.0174 12.5181 23.0174 15.7502V21.5835ZM17.8951 27.2502C17.6598 27.4572 17.3521 27.5835 17.0174 27.5835C16.6782 27.5835 16.3697 27.4575 16.135 27.2502H17.8951Z" stroke="#65D4A5" stroke-width="2"/>
</svg>
