<svg width="12" height="12" viewBox="0 0 12 12" fill="none" xmlns="http://www.w3.org/2000/svg">
<path d="M10.8492 2.36388L7.31371 5.89941L10.8492 9.43495C11.2382 9.82386 11.2382 10.4603 10.8492 10.8492C10.4603 11.2381 9.82394 11.2381 9.43503 10.8492L5.89949 7.31363L2.36396 10.8492C1.97505 11.2381 1.33866 11.2381 0.949747 10.8492C0.560839 10.4603 0.560839 9.82386 0.949747 9.43495L4.48528 5.89941L0.949747 2.36388C0.560839 1.97497 0.560839 1.33858 0.949747 0.949667C1.33866 0.560758 1.97505 0.560758 2.36396 0.949667L5.89949 4.4852L9.43503 0.949667C9.82394 0.560758 10.4603 0.560758 10.8492 0.949667C11.2382 1.33858 11.2382 1.97497 10.8492 2.36388Z" fill="black"/>
</svg>
