<svg width="32" height="32" viewBox="0 0 32 32" fill="none" xmlns="http://www.w3.org/2000/svg">
<g filter="url(#filter0_d_803_54374)">
<circle cx="16" cy="15" r="12" fill="white"/>
</g>
<path d="M20.8492 11.4645L17.3137 15L20.8492 18.5355C21.2382 18.9244 21.2382 19.5608 20.8492 19.9497C20.4603 20.3387 19.8239 20.3387 19.435 19.9497L15.8995 16.4142L12.364 19.9497C11.9751 20.3387 11.3387 20.3387 10.9497 19.9497C10.5608 19.5608 10.5608 18.9244 10.9497 18.5355L14.4853 15L10.9497 11.4645C10.5608 11.0756 10.5608 10.4392 10.9497 10.0503C11.3387 9.66134 11.9751 9.66134 12.364 10.0503L15.8995 13.5858L19.435 10.0503C19.8239 9.66134 20.4603 9.66134 20.8492 10.0503C21.2382 10.4392 21.2382 11.0756 20.8492 11.4645Z" fill="#65D4A5"/>
<defs>
<filter id="filter0_d_803_54374" x="0" y="0" width="32" height="32" filterUnits="userSpaceOnUse" color-interpolation-filters="sRGB">
<feFlood flood-opacity="0" result="BackgroundImageFix"/>
<feColorMatrix in="SourceAlpha" type="matrix" values="0 0 0 0 0 0 0 0 0 0 0 0 0 0 0 0 0 0 127 0" result="hardAlpha"/>
<feMorphology radius="1" operator="dilate" in="SourceAlpha" result="effect1_dropShadow_803_54374"/>
<feOffset dy="1"/>
<feGaussianBlur stdDeviation="1.5"/>
<feComposite in2="hardAlpha" operator="out"/>
<feColorMatrix type="matrix" values="0 0 0 0 0 0 0 0 0 0 0 0 0 0 0 0 0 0 0.1 0"/>
<feBlend mode="normal" in2="BackgroundImageFix" result="effect1_dropShadow_803_54374"/>
<feBlend mode="normal" in="SourceGraphic" in2="effect1_dropShadow_803_54374" result="shape"/>
</filter>
</defs>
</svg>
