<svg width="15" height="15" viewBox="0 0 15 15" fill="none" xmlns="http://www.w3.org/2000/svg">
<path d="M0 12.5C0 12.9583 0.375 13.3333 0.833333 13.3333H5V11.6667H0.833333C0.375 11.6667 0 12.0417 0 12.5ZM0 2.5C0 2.95833 0.375 3.33333 0.833333 3.33333H8.33333V1.66667H0.833333C0.375 1.66667 0 2.04167 0 2.5ZM8.33333 14.1667V13.3333H14.1667C14.625 13.3333 15 12.9583 15 12.5C15 12.0417 14.625 11.6667 14.1667 11.6667H8.33333V10.8333C8.33333 10.375 7.95833 10 7.5 10C7.04167 10 6.66667 10.375 6.66667 10.8333V14.1667C6.66667 14.625 7.04167 15 7.5 15C7.95833 15 8.33333 14.625 8.33333 14.1667ZM3.33333 5.83333V6.66667H0.833333C0.375 6.66667 0 7.04167 0 7.5C0 7.95833 0.375 8.33333 0.833333 8.33333H3.33333V9.16667C3.33333 9.625 3.70833 10 4.16667 10C4.625 10 5 9.625 5 9.16667V5.83333C5 5.375 4.625 5 4.16667 5C3.70833 5 3.33333 5.375 3.33333 5.83333ZM15 7.5C15 7.04167 14.625 6.66667 14.1667 6.66667H6.66667V8.33333H14.1667C14.625 8.33333 15 7.95833 15 7.5ZM10.8333 5C11.2917 5 11.6667 4.625 11.6667 4.16667V3.33333H14.1667C14.625 3.33333 15 2.95833 15 2.5C15 2.04167 14.625 1.66667 14.1667 1.66667H11.6667V0.833333C11.6667 0.375 11.2917 0 10.8333 0C10.375 0 10 0.375 10 0.833333V4.16667C10 4.625 10.375 5 10.8333 5Z" fill="white"/>
</svg>
