<svg viewBox="0 0 195 61" fill="none" xmlns="http://www.w3.org/2000/svg">
<g filter="url(#filter0_di_246_53652)">
<path d="M12.2568 44.2158H4V3H32.8843V11.2489H12.2568V19.4978H24.6275V27.7467H12.2568V44.2158Z" fill="#FFFFC8"/>
<path d="M42.0329 44.2158H34.1789V13.4333H36.0777L38.6669 17.0835C39.9328 15.9338 41.3712 15.0524 42.9823 14.4393C44.5934 13.8069 46.262 13.4908 47.9882 13.4908H54.9215V21.3086H47.9882C47.1634 21.3086 46.3867 21.4619 45.6578 21.7684C44.929 22.075 44.2961 22.4966 43.7591 23.0331C43.222 23.5696 42.8001 24.2019 42.4932 24.93C42.1864 25.6582 42.0329 26.4342 42.0329 27.2581V44.2158Z" fill="#FFFFC8"/>
<path d="M87.776 28.5515C87.776 30.8509 87.3636 32.9969 86.5389 34.9897C85.7142 36.9633 84.5922 38.6782 83.1729 40.1345C81.7536 41.5716 80.085 42.7117 78.1671 43.5548C76.2683 44.3787 74.2257 44.7907 72.0392 44.7907C69.8719 44.7907 67.8293 44.3787 65.9114 43.5548C64.0126 42.7117 62.344 41.5716 60.9055 40.1345C59.4863 38.6782 58.3643 36.9633 57.5395 34.9897C56.7148 32.9969 56.3025 30.8509 56.3025 28.5515C56.3025 26.2138 56.7148 24.0486 57.5395 22.0559C58.3643 20.0631 59.4863 18.3482 60.9055 16.9111C62.344 15.4548 64.0126 14.3147 65.9114 13.4908C67.8293 12.6668 69.8719 12.2549 72.0392 12.2549C74.2257 12.2549 76.2683 12.6477 78.1671 13.4333C80.085 14.1997 81.7536 15.3015 83.1729 16.7386C84.5922 18.1565 85.7142 19.8715 86.5389 21.8834C87.3636 23.8762 87.776 26.0989 87.776 28.5515ZM79.8645 28.5515C79.8645 27.2869 79.6535 26.1468 79.2315 25.1312C78.8288 24.0965 78.2726 23.2151 77.5629 22.487C76.8533 21.7397 76.019 21.1744 75.06 20.7912C74.1202 20.3888 73.1133 20.1876 72.0392 20.1876C70.9652 20.1876 69.9487 20.3888 68.9897 20.7912C68.0499 21.1744 67.2252 21.7397 66.5155 22.487C65.8251 23.2151 65.2785 24.0965 64.8757 25.1312C64.4729 26.1468 64.2715 27.2869 64.2715 28.5515C64.2715 29.7395 64.4729 30.8413 64.8757 31.8568C65.2785 32.8724 65.8251 33.7538 66.5155 34.5011C67.2252 35.2484 68.0499 35.8424 68.9897 36.2831C69.9487 36.7046 70.9652 36.9154 72.0392 36.9154C73.1133 36.9154 74.1202 36.7142 75.06 36.3118C76.019 35.9094 76.8533 35.3442 77.5629 34.6161C78.2726 33.8879 78.8288 33.0065 79.2315 31.9718C79.6535 30.9371 79.8645 29.797 79.8645 28.5515Z" fill="#FFFFC8"/>
<path d="M114.042 28.5515C114.042 27.4785 113.831 26.4438 113.409 25.4474C113.007 24.4319 112.45 23.5409 111.741 22.7744C111.031 21.9888 110.197 21.3661 109.238 20.9062C108.298 20.4272 107.291 20.1876 106.217 20.1876C105.143 20.1876 104.127 20.3697 103.168 20.7337C102.228 21.0978 101.403 21.6343 100.693 22.3433C100.003 23.0522 99.4563 23.9337 99.0535 24.9875C98.6508 26.0222 98.4494 27.2102 98.4494 28.5515C98.4494 29.8353 98.6508 30.9946 99.0535 32.0293C99.4563 33.0448 100.003 33.9167 100.693 34.6448C101.403 35.3729 102.228 35.9382 103.168 36.3406C104.127 36.7238 105.143 36.9154 106.217 36.9154C107.291 36.9154 108.298 36.6855 109.238 36.2256C110.197 35.7466 111.031 35.1238 111.741 34.3574C112.45 33.5718 113.007 32.6808 113.409 31.6844C113.831 30.6688 114.042 29.6245 114.042 28.5515ZM121.954 40.3357C121.954 42.5009 121.541 44.532 120.717 46.429C119.892 48.3259 118.76 49.9834 117.322 51.4013C115.903 52.8192 114.234 53.9402 112.316 54.7641C110.417 55.588 108.384 56 106.217 56L102.276 55.9425V48.096L106.16 48.1535C107.387 48.1535 108.432 47.9906 109.295 47.6649C110.158 47.3583 110.887 46.9272 111.482 46.3715C112.076 45.835 112.546 45.2122 112.892 44.5033C113.256 43.7943 113.544 43.047 113.755 42.2614C113.448 42.7596 113.007 43.1715 112.431 43.4973C111.856 43.8039 111.213 44.053 110.504 44.2446C109.813 44.4554 109.084 44.5991 108.317 44.6757C107.569 44.7523 106.869 44.7907 106.217 44.7907C104.05 44.7907 102.007 44.417 100.089 43.6697C98.1905 42.9225 96.5218 41.859 95.0834 40.4794C93.6641 39.0806 92.5421 37.3753 91.7174 35.3633C90.8927 33.3514 90.4803 31.0808 90.4803 28.5515C90.4803 26.233 90.8927 24.0774 91.7174 22.0846C92.5421 20.0918 93.6641 18.3673 95.0834 16.9111C96.5218 15.4548 98.1905 14.3147 100.089 13.4908C102.007 12.6668 104.05 12.2549 106.217 12.2549C107.214 12.2549 108.202 12.3794 109.18 12.6285C110.158 12.8776 111.108 13.2225 112.028 13.6632C112.949 14.1039 113.822 14.6213 114.646 15.2153C115.49 15.8093 116.277 16.4512 117.006 17.141L120.055 13.4908H121.954V40.3357Z" fill="#FFFFC8"/>
<path d="M149.889 28.5515C149.889 27.4785 149.678 26.4438 149.256 25.4474C148.853 24.4319 148.297 23.5409 147.587 22.7744C146.878 21.9888 146.043 21.3661 145.084 20.9062C144.145 20.4272 143.138 20.1876 142.064 20.1876C140.989 20.1876 139.973 20.3697 139.014 20.7337C138.074 21.0978 137.249 21.6343 136.54 22.3433C135.849 23.0522 135.303 23.9337 134.9 24.9875C134.497 26.0222 134.296 27.2102 134.296 28.5515C134.296 29.8353 134.497 30.9946 134.9 32.0293C135.303 33.0448 135.849 33.9167 136.54 34.6448C137.249 35.3729 138.074 35.9382 139.014 36.3406C139.973 36.7238 140.989 36.9154 142.064 36.9154C143.138 36.9154 144.145 36.6855 145.084 36.2256C146.043 35.7466 146.878 35.1238 147.587 34.3574C148.297 33.5718 148.853 32.6808 149.256 31.6844C149.678 30.6688 149.889 29.6245 149.889 28.5515ZM157.8 40.3357C157.8 42.5009 157.388 44.532 156.563 46.429C155.739 48.3259 154.607 49.9834 153.168 51.4013C151.749 52.8192 150.081 53.9402 148.163 54.7641C146.264 55.588 144.231 56 142.064 56L138.122 55.9425V48.096L142.006 48.1535C143.233 48.1535 144.279 47.9906 145.142 47.6649C146.005 47.3583 146.734 46.9272 147.328 46.3715C147.923 45.835 148.393 45.2122 148.738 44.5033C149.102 43.7943 149.39 43.047 149.601 42.2614C149.294 42.7596 148.853 43.1715 148.278 43.4973C147.702 43.8039 147.06 44.053 146.35 44.2446C145.66 44.4554 144.931 44.5991 144.164 44.6757C143.416 44.7523 142.716 44.7907 142.064 44.7907C139.896 44.7907 137.854 44.417 135.936 43.6697C134.037 42.9225 132.368 41.859 130.93 40.4794C129.511 39.0806 128.389 37.3753 127.564 35.3633C126.739 33.3514 126.327 31.0808 126.327 28.5515C126.327 26.233 126.739 24.0774 127.564 22.0846C128.389 20.0918 129.511 18.3673 130.93 16.9111C132.368 15.4548 134.037 14.3147 135.936 13.4908C137.854 12.6668 139.896 12.2549 142.064 12.2549C143.061 12.2549 144.049 12.3794 145.027 12.6285C146.005 12.8776 146.954 13.2225 147.875 13.6632C148.796 14.1039 149.668 14.6213 150.493 15.2153C151.337 15.8093 152.123 16.4512 152.852 17.141L155.902 13.4908H157.8V40.3357Z" fill="#FFFFC8"/>
<path d="M171.236 55.9425V48.0385L175.608 48.096C176.376 48.096 177.114 47.9714 177.824 47.7223C178.533 47.4732 179.185 47.1283 179.78 46.6876C180.394 46.2469 180.931 45.72 181.391 45.1068C181.851 44.5128 182.225 43.8614 182.513 43.1524C181.65 43.5164 180.768 43.8805 179.866 44.2446C178.984 44.6086 178.092 44.7907 177.191 44.7907C175.292 44.7907 173.508 44.4554 171.84 43.7847C170.171 43.1141 168.704 42.1656 167.438 40.9393C166.191 39.6938 165.204 38.1896 164.475 36.4268C163.765 34.6448 163.41 32.652 163.41 30.4485V13.4333H171.236V30.4485C171.236 31.5407 171.389 32.4987 171.696 33.3227C172.022 34.1274 172.453 34.8077 172.99 35.3633C173.527 35.8999 174.151 36.3022 174.86 36.5705C175.589 36.8388 176.366 36.9729 177.191 36.9729C177.996 36.9729 178.754 36.7909 179.464 36.4268C180.192 36.0436 180.825 35.5454 181.362 34.9322C181.899 34.3191 182.321 33.6292 182.628 32.8628C182.935 32.0772 183.088 31.2724 183.088 30.4485V13.4333H191V40.3357C190.981 42.5009 190.559 44.532 189.734 46.429C188.909 48.3259 187.778 49.9834 186.339 51.4013C184.92 52.8192 183.261 53.9402 181.362 54.7641C179.464 55.588 177.431 56 175.263 56L171.236 55.9425Z" fill="#FFFFC8"/>
</g>
<defs>
<filter id="filter0_di_246_53652" x="0" y="0" width="196" height="61" filterUnits="userSpaceOnUse" color-interpolation-filters="sRGB">
<feFlood flood-opacity="0" result="BackgroundImageFix"/>
<feColorMatrix in="SourceAlpha" type="matrix" values="0 0 0 0 0 0 0 0 0 0 0 0 0 0 0 0 0 0 127 0" result="hardAlpha"/>
<feOffset dy="1"/>
<feGaussianBlur stdDeviation="2"/>
<feComposite in2="hardAlpha" operator="out"/>
<feColorMatrix type="matrix" values="0 0 0 0 0 0 0 0 0 0 0 0 0 0 0 0 0 0 0.25 0"/>
<feBlend mode="normal" in2="BackgroundImageFix" result="effect1_dropShadow_246_53652"/>
<feBlend mode="normal" in="SourceGraphic" in2="effect1_dropShadow_246_53652" result="shape"/>
<feColorMatrix in="SourceAlpha" type="matrix" values="0 0 0 0 0 0 0 0 0 0 0 0 0 0 0 0 0 0 127 0" result="hardAlpha"/>
<feOffset dx="-1" dy="-1"/>
<feGaussianBlur stdDeviation="1"/>
<feComposite in2="hardAlpha" operator="arithmetic" k2="-1" k3="1"/>
<feColorMatrix type="matrix" values="0 0 0 0 0 0 0 0 0 0 0 0 0 0 0 0 0 0 0.1 0"/>
<feBlend mode="normal" in2="shape" result="effect2_innerShadow_246_53652"/>
</filter>
</defs>
</svg>
