<svg width="current" height="current" viewBox="0 0 160 47" fill="none" xmlns="http://www.w3.org/2000/svg">
<path d="M8.00293 36H0.996094V0.990234H25.5078V7.99707H8.00293V15.0039H18.501V22.0107H8.00293V36ZM33.2715 36H26.6064V9.85254H28.2178L30.415 12.9531C31.4893 11.9766 32.71 11.2279 34.0771 10.707C35.4443 10.1699 36.8604 9.90137 38.3252 9.90137H44.209V16.542H38.3252C37.6253 16.542 36.9661 16.6722 36.3477 16.9326C35.7292 17.193 35.1921 17.5511 34.7363 18.0068C34.2806 18.4626 33.9225 18.9997 33.6621 19.6182C33.4017 20.2367 33.2715 20.8958 33.2715 21.5957V36ZM72.0898 22.6943C72.0898 24.6475 71.7399 26.4704 71.04 28.1631C70.3402 29.8395 69.388 31.2962 68.1836 32.5332C66.9792 33.7539 65.5632 34.7223 63.9355 35.4385C62.3242 36.1383 60.5908 36.4883 58.7354 36.4883C56.8962 36.4883 55.1628 36.1383 53.5352 35.4385C51.9238 34.7223 50.5078 33.7539 49.2871 32.5332C48.0827 31.2962 47.1305 29.8395 46.4307 28.1631C45.7308 26.4704 45.3809 24.6475 45.3809 22.6943C45.3809 20.7087 45.7308 18.8695 46.4307 17.1768C47.1305 15.484 48.0827 14.0273 49.2871 12.8066C50.5078 11.5697 51.9238 10.6012 53.5352 9.90137C55.1628 9.2015 56.8962 8.85156 58.7354 8.85156C60.5908 8.85156 62.3242 9.18522 63.9355 9.85254C65.5632 10.5036 66.9792 11.4395 68.1836 12.6602C69.388 13.8646 70.3402 15.3213 71.04 17.0303C71.7399 18.723 72.0898 20.611 72.0898 22.6943ZM65.376 22.6943C65.376 21.6201 65.1969 20.6517 64.8389 19.7891C64.4971 18.9102 64.0251 18.1615 63.4229 17.543C62.8206 16.9082 62.1126 16.4281 61.2988 16.1025C60.5013 15.7607 59.6468 15.5898 58.7354 15.5898C57.8239 15.5898 56.9613 15.7607 56.1475 16.1025C55.3499 16.4281 54.6501 16.9082 54.0479 17.543C53.4619 18.1615 52.998 18.9102 52.6562 19.7891C52.3145 20.6517 52.1436 21.6201 52.1436 22.6943C52.1436 23.7035 52.3145 24.6393 52.6562 25.502C52.998 26.3646 53.4619 27.1133 54.0479 27.748C54.6501 28.3828 55.3499 28.8874 56.1475 29.2617C56.9613 29.6198 57.8239 29.7988 58.7354 29.7988C59.6468 29.7988 60.5013 29.6279 61.2988 29.2861C62.1126 28.9443 62.8206 28.4642 63.4229 27.8457C64.0251 27.2272 64.4971 26.4785 64.8389 25.5996C65.1969 24.7207 65.376 23.7523 65.376 22.6943ZM94.3799 22.6943C94.3799 21.7829 94.2008 20.904 93.8428 20.0576C93.501 19.195 93.029 18.4382 92.4268 17.7871C91.8245 17.1198 91.1165 16.5908 90.3027 16.2002C89.5052 15.7933 88.6507 15.5898 87.7393 15.5898C86.8278 15.5898 85.9652 15.7445 85.1514 16.0537C84.3538 16.363 83.654 16.8187 83.0518 17.4209C82.4658 18.0231 82.002 18.7718 81.6602 19.667C81.3184 20.5459 81.1475 21.555 81.1475 22.6943C81.1475 23.7848 81.3184 24.7695 81.6602 25.6484C82.002 26.5111 82.4658 27.2516 83.0518 27.8701C83.654 28.4886 84.3538 28.9688 85.1514 29.3105C85.9652 29.6361 86.8278 29.7988 87.7393 29.7988C88.6507 29.7988 89.5052 29.6035 90.3027 29.2129C91.1165 28.806 91.8245 28.277 92.4268 27.626C93.029 26.9587 93.501 26.2018 93.8428 25.3555C94.2008 24.4928 94.3799 23.6058 94.3799 22.6943ZM101.094 32.7041C101.094 34.5433 100.744 36.2686 100.044 37.8799C99.3441 39.4912 98.3838 40.8991 97.1631 42.1035C95.9587 43.3079 94.5426 44.2601 92.915 44.96C91.3037 45.6598 89.5785 46.0098 87.7393 46.0098L84.3945 45.9609V39.2959L87.6904 39.3447C88.7321 39.3447 89.6191 39.2064 90.3516 38.9297C91.084 38.6693 91.7025 38.3031 92.207 37.8311C92.7116 37.3753 93.1104 36.8464 93.4033 36.2441C93.7126 35.6419 93.9567 35.0072 94.1357 34.3398C93.8753 34.763 93.501 35.113 93.0127 35.3896C92.5244 35.6501 91.9792 35.8617 91.377 36.0244C90.791 36.2035 90.1725 36.3255 89.5215 36.3906C88.8867 36.4557 88.2926 36.4883 87.7393 36.4883C85.9001 36.4883 84.1667 36.1709 82.5391 35.5361C80.9277 34.9014 79.5117 33.998 78.291 32.8262C77.0866 31.638 76.1344 30.1895 75.4346 28.4805C74.7347 26.7715 74.3848 24.8428 74.3848 22.6943C74.3848 20.7249 74.7347 18.8939 75.4346 17.2012C76.1344 15.5085 77.0866 14.0436 78.291 12.8066C79.5117 11.5697 80.9277 10.6012 82.5391 9.90137C84.1667 9.2015 85.9001 8.85156 87.7393 8.85156C88.5856 8.85156 89.4238 8.95736 90.2539 9.16895C91.084 9.38053 91.8896 9.6735 92.6709 10.0479C93.4521 10.4222 94.1927 10.8617 94.8926 11.3662C95.6087 11.8708 96.276 12.416 96.8945 13.002L99.4824 9.90137H101.094V32.7041ZM124.8 22.6943C124.8 21.7829 124.621 20.904 124.263 20.0576C123.921 19.195 123.449 18.4382 122.847 17.7871C122.244 17.1198 121.536 16.5908 120.723 16.2002C119.925 15.7933 119.071 15.5898 118.159 15.5898C117.248 15.5898 116.385 15.7445 115.571 16.0537C114.774 16.363 114.074 16.8187 113.472 17.4209C112.886 18.0231 112.422 18.7718 112.08 19.667C111.738 20.5459 111.567 21.555 111.567 22.6943C111.567 23.7848 111.738 24.7695 112.08 25.6484C112.422 26.5111 112.886 27.2516 113.472 27.8701C114.074 28.4886 114.774 28.9688 115.571 29.3105C116.385 29.6361 117.248 29.7988 118.159 29.7988C119.071 29.7988 119.925 29.6035 120.723 29.2129C121.536 28.806 122.244 28.277 122.847 27.626C123.449 26.9587 123.921 26.2018 124.263 25.3555C124.621 24.4928 124.8 23.6058 124.8 22.6943ZM131.514 32.7041C131.514 34.5433 131.164 36.2686 130.464 37.8799C129.764 39.4912 128.804 40.8991 127.583 42.1035C126.379 43.3079 124.963 44.2601 123.335 44.96C121.724 45.6598 119.998 46.0098 118.159 46.0098L114.814 45.9609V39.2959L118.11 39.3447C119.152 39.3447 120.039 39.2064 120.771 38.9297C121.504 38.6693 122.122 38.3031 122.627 37.8311C123.132 37.3753 123.53 36.8464 123.823 36.2441C124.132 35.6419 124.377 35.0072 124.556 34.3398C124.295 34.763 123.921 35.113 123.433 35.3896C122.944 35.6501 122.399 35.8617 121.797 36.0244C121.211 36.2035 120.592 36.3255 119.941 36.3906C119.307 36.4557 118.713 36.4883 118.159 36.4883C116.32 36.4883 114.587 36.1709 112.959 35.5361C111.348 34.9014 109.932 33.998 108.711 32.8262C107.507 31.638 106.554 30.1895 105.854 28.4805C105.155 26.7715 104.805 24.8428 104.805 22.6943C104.805 20.7249 105.155 18.8939 105.854 17.2012C106.554 15.5085 107.507 14.0436 108.711 12.8066C109.932 11.5697 111.348 10.6012 112.959 9.90137C114.587 9.2015 116.32 8.85156 118.159 8.85156C119.006 8.85156 119.844 8.95736 120.674 9.16895C121.504 9.38053 122.31 9.6735 123.091 10.0479C123.872 10.4222 124.613 10.8617 125.312 11.3662C126.029 11.8708 126.696 12.416 127.314 13.002L129.902 9.90137H131.514V32.7041ZM142.915 45.9609V39.2471L146.626 39.2959C147.277 39.2959 147.904 39.1901 148.506 38.9785C149.108 38.7669 149.661 38.474 150.166 38.0996C150.687 37.7253 151.143 37.2777 151.533 36.7568C151.924 36.2523 152.241 35.6989 152.485 35.0967C151.753 35.4059 151.004 35.7152 150.239 36.0244C149.491 36.3337 148.734 36.4883 147.969 36.4883C146.357 36.4883 144.844 36.2035 143.428 35.6338C142.012 35.0641 140.767 34.2585 139.692 33.2168C138.634 32.1589 137.796 30.8812 137.178 29.3838C136.576 27.8701 136.274 26.1774 136.274 24.3057V9.85254H142.915V24.3057C142.915 25.2334 143.045 26.0472 143.306 26.7471C143.582 27.4307 143.949 28.0085 144.404 28.4805C144.86 28.9362 145.389 29.278 145.991 29.5059C146.61 29.7337 147.269 29.8477 147.969 29.8477C148.652 29.8477 149.295 29.693 149.897 29.3838C150.516 29.0583 151.053 28.6351 151.509 28.1143C151.965 27.5934 152.323 27.0075 152.583 26.3564C152.843 25.6891 152.974 25.0055 152.974 24.3057V9.85254H159.688V32.7041C159.671 34.5433 159.313 36.2686 158.613 37.8799C157.913 39.4912 156.953 40.8991 155.732 42.1035C154.528 43.3079 153.12 44.2601 151.509 44.96C149.897 45.6598 148.172 46.0098 146.333 46.0098L142.915 45.9609Z" fill="#65D4A5"/>
</svg>
