<svg viewBox="0 0 161 46" xmlns="http://www.w3.org/2000/svg">
<path d="M8.00293 35.0098H0.996094V0H25.5078V7.00684H8.00293V14.0137H18.501V21.0205H8.00293V35.0098Z" />
<path d="M33.2715 35.0098H26.6064V8.8623H28.2178L30.415 11.9629C31.4893 10.9863 32.71 10.2376 34.0771 9.7168C35.4443 9.17969 36.8604 8.91113 38.3252 8.91113H44.209V15.5518H38.3252C37.6253 15.5518 36.9661 15.682 36.3477 15.9424C35.7292 16.2028 35.1921 16.5609 34.7363 17.0166C34.2806 17.4723 33.9225 18.0094 33.6621 18.6279C33.4017 19.2464 33.2715 19.9056 33.2715 20.6055V35.0098Z"/>
<path d="M72.0898 21.7041C72.0898 23.6572 71.7399 25.4801 71.04 27.1729C70.3402 28.8493 69.388 30.306 68.1836 31.543C66.9792 32.7637 65.5631 33.7321 63.9355 34.4482C62.3242 35.1481 60.5908 35.498 58.7354 35.498C56.8962 35.498 55.1628 35.1481 53.5352 34.4482C51.9238 33.7321 50.5078 32.7637 49.2871 31.543C48.0827 30.306 47.1305 28.8493 46.4307 27.1729C45.7308 25.4801 45.3809 23.6572 45.3809 21.7041C45.3809 19.7184 45.7308 17.8792 46.4307 16.1865C47.1305 14.4938 48.0827 13.0371 49.2871 11.8164C50.5078 10.5794 51.9238 9.611 53.5352 8.91113C55.1628 8.21126 56.8962 7.86133 58.7354 7.86133C60.5908 7.86133 62.3242 8.19499 63.9355 8.8623C65.5631 9.51335 66.9792 10.4492 68.1836 11.6699C69.388 12.8743 70.3402 14.3311 71.04 16.04C71.7399 17.7327 72.0898 19.6208 72.0898 21.7041ZM65.376 21.7041C65.376 20.6299 65.1969 19.6615 64.8389 18.7988C64.4971 17.9199 64.0251 17.1712 63.4229 16.5527C62.8206 15.918 62.1126 15.4378 61.2988 15.1123C60.5013 14.7705 59.6468 14.5996 58.7354 14.5996C57.8239 14.5996 56.9613 14.7705 56.1475 15.1123C55.3499 15.4378 54.6501 15.918 54.0479 16.5527C53.4619 17.1712 52.998 17.9199 52.6562 18.7988C52.3145 19.6615 52.1436 20.6299 52.1436 21.7041C52.1436 22.7132 52.3145 23.6491 52.6562 24.5117C52.998 25.3743 53.4619 26.123 54.0479 26.7578C54.6501 27.3926 55.3499 27.8971 56.1475 28.2715C56.9613 28.6296 57.8239 28.8086 58.7354 28.8086C59.6468 28.8086 60.5013 28.6377 61.2988 28.2959C62.1126 27.9541 62.8206 27.474 63.4229 26.8555C64.0251 26.237 64.4971 25.4883 64.8389 24.6094C65.1969 23.7305 65.376 22.762 65.376 21.7041Z"/>
<path d="M94.3799 21.7041C94.3799 20.7926 94.2008 19.9137 93.8428 19.0674C93.501 18.2048 93.029 17.4479 92.4268 16.7969C91.8245 16.1296 91.1165 15.6006 90.3027 15.21C89.5052 14.8031 88.6507 14.5996 87.7393 14.5996C86.8278 14.5996 85.9652 14.7542 85.1514 15.0635C84.3538 15.3727 83.654 15.8285 83.0518 16.4307C82.4658 17.0329 82.002 17.7816 81.6602 18.6768C81.3184 19.5557 81.1475 20.5648 81.1475 21.7041C81.1475 22.7946 81.3184 23.7793 81.6602 24.6582C82.002 25.5208 82.4658 26.2614 83.0518 26.8799C83.654 27.4984 84.3538 27.9785 85.1514 28.3203C85.9652 28.6458 86.8278 28.8086 87.7393 28.8086C88.6507 28.8086 89.5052 28.6133 90.3027 28.2227C91.1165 27.8158 91.8245 27.2868 92.4268 26.6357C93.029 25.9684 93.501 25.2116 93.8428 24.3652C94.2008 23.5026 94.3799 22.6156 94.3799 21.7041ZM101.094 31.7139C101.094 33.5531 100.744 35.2783 100.044 36.8896C99.3441 38.501 98.3838 39.9089 97.1631 41.1133C95.9587 42.3177 94.5426 43.2699 92.915 43.9697C91.3037 44.6696 89.5785 45.0195 87.7393 45.0195L84.3945 44.9707V38.3057L87.6904 38.3545C88.7321 38.3545 89.6191 38.2161 90.3516 37.9395C91.084 37.679 91.7025 37.3128 92.207 36.8408C92.7116 36.3851 93.1104 35.8561 93.4033 35.2539C93.7126 34.6517 93.9567 34.0169 94.1357 33.3496C93.8753 33.7728 93.501 34.1227 93.0127 34.3994C92.5244 34.6598 91.9792 34.8714 91.377 35.0342C90.791 35.2132 90.1725 35.3353 89.5215 35.4004C88.8867 35.4655 88.2926 35.498 87.7393 35.498C85.9001 35.498 84.1667 35.1807 82.5391 34.5459C80.9277 33.9111 79.5117 33.0078 78.291 31.8359C77.0866 30.6478 76.1344 29.1992 75.4346 27.4902C74.7347 25.7812 74.3848 23.8525 74.3848 21.7041C74.3848 19.7347 74.7347 17.9036 75.4346 16.2109C76.1344 14.5182 77.0866 13.0534 78.291 11.8164C79.5117 10.5794 80.9277 9.611 82.5391 8.91113C84.1667 8.21126 85.9001 7.86133 87.7393 7.86133C88.5856 7.86133 89.4238 7.96712 90.2539 8.17871C91.084 8.3903 91.8896 8.68327 92.6709 9.05762C93.4521 9.43197 94.1927 9.87142 94.8926 10.376C95.6087 10.8805 96.276 11.4258 96.8945 12.0117L99.4824 8.91113H101.094V31.7139Z"/>
<path d="M124.8 21.7041C124.8 20.7926 124.621 19.9137 124.263 19.0674C123.921 18.2048 123.449 17.4479 122.847 16.7969C122.244 16.1296 121.536 15.6006 120.723 15.21C119.925 14.8031 119.071 14.5996 118.159 14.5996C117.248 14.5996 116.385 14.7542 115.571 15.0635C114.774 15.3727 114.074 15.8285 113.472 16.4307C112.886 17.0329 112.422 17.7816 112.08 18.6768C111.738 19.5557 111.567 20.5648 111.567 21.7041C111.567 22.7946 111.738 23.7793 112.08 24.6582C112.422 25.5208 112.886 26.2614 113.472 26.8799C114.074 27.4984 114.774 27.9785 115.571 28.3203C116.385 28.6458 117.248 28.8086 118.159 28.8086C119.071 28.8086 119.925 28.6133 120.723 28.2227C121.536 27.8158 122.244 27.2868 122.847 26.6357C123.449 25.9684 123.921 25.2116 124.263 24.3652C124.621 23.5026 124.8 22.6156 124.8 21.7041ZM131.514 31.7139C131.514 33.5531 131.164 35.2783 130.464 36.8896C129.764 38.501 128.804 39.9089 127.583 41.1133C126.379 42.3177 124.963 43.2699 123.335 43.9697C121.724 44.6696 119.998 45.0195 118.159 45.0195L114.814 44.9707V38.3057L118.11 38.3545C119.152 38.3545 120.039 38.2161 120.771 37.9395C121.504 37.679 122.122 37.3128 122.627 36.8408C123.132 36.3851 123.53 35.8561 123.823 35.2539C124.132 34.6517 124.377 34.0169 124.556 33.3496C124.295 33.7728 123.921 34.1227 123.433 34.3994C122.944 34.6598 122.399 34.8714 121.797 35.0342C121.211 35.2132 120.592 35.3353 119.941 35.4004C119.307 35.4655 118.713 35.498 118.159 35.498C116.32 35.498 114.587 35.1807 112.959 34.5459C111.348 33.9111 109.932 33.0078 108.711 31.8359C107.507 30.6478 106.554 29.1992 105.854 27.4902C105.155 25.7812 104.805 23.8525 104.805 21.7041C104.805 19.7347 105.155 17.9036 105.854 16.2109C106.554 14.5182 107.507 13.0534 108.711 11.8164C109.932 10.5794 111.348 9.611 112.959 8.91113C114.587 8.21126 116.32 7.86133 118.159 7.86133C119.006 7.86133 119.844 7.96712 120.674 8.17871C121.504 8.3903 122.31 8.68327 123.091 9.05762C123.872 9.43197 124.613 9.87142 125.312 10.376C126.029 10.8805 126.696 11.4258 127.314 12.0117L129.902 8.91113H131.514V31.7139Z"/>
<path d="M142.915 44.9707V38.2568L146.626 38.3057C147.277 38.3057 147.904 38.1999 148.506 37.9883C149.108 37.7767 149.661 37.4837 150.166 37.1094C150.687 36.735 151.143 36.2874 151.533 35.7666C151.924 35.262 152.241 34.7087 152.485 34.1064C151.753 34.4157 151.004 34.7249 150.239 35.0342C149.491 35.3434 148.734 35.498 147.969 35.498C146.357 35.498 144.844 35.2132 143.428 34.6436C142.012 34.0739 140.767 33.2682 139.692 32.2266C138.634 31.1686 137.796 29.891 137.178 28.3936C136.576 26.8799 136.274 25.1872 136.274 23.3154V8.8623H142.915V23.3154C142.915 24.2432 143.045 25.057 143.306 25.7568C143.582 26.4404 143.949 27.0182 144.404 27.4902C144.86 27.946 145.389 28.2878 145.991 28.5156C146.61 28.7435 147.269 28.8574 147.969 28.8574C148.652 28.8574 149.295 28.7028 149.897 28.3936C150.516 28.068 151.053 27.6449 151.509 27.124C151.965 26.6032 152.323 26.0173 152.583 25.3662C152.843 24.6989 152.974 24.0153 152.974 23.3154V8.8623H159.688V31.7139C159.671 33.5531 159.313 35.2783 158.613 36.8896C157.913 38.501 156.953 39.9089 155.732 41.1133C154.528 42.3177 153.12 43.2699 151.509 43.9697C149.897 44.6696 148.172 45.0195 146.333 45.0195L142.915 44.9707Z"/>
</svg>
