<svg width="20" height="20" viewBox="0 0 20 20" fill="none" xmlns="http://www.w3.org/2000/svg">
<path d="M9 5.183C9 5.872 9.546 6.379 10.248 6.379C10.95 6.379 11.496 5.872 11.496 5.183C11.496 4.507 10.95 4 10.248 4C9.546 4 9 4.507 9 5.183Z" fill="black"/>
<path d="M9 9.41054C9 10.0995 9.546 10.6065 10.248 10.6065C10.95 10.6065 11.496 10.0995 11.496 9.41054C11.496 8.73454 10.95 8.22754 10.248 8.22754C9.546 8.22754 9 8.73454 9 9.41054Z" fill="black"/>
<path d="M9 13.6381C9 14.3271 9.546 14.8341 10.248 14.8341C10.95 14.8341 11.496 14.3271 11.496 13.6381C11.496 12.9621 10.95 12.4551 10.248 12.4551C9.546 12.4551 9 12.9621 9 13.6381Z" fill="black"/>
</svg>
