<svg viewBox="0 0 24 24" xmlns="http://www.w3.org/2000/svg">
<path fill-rule="evenodd" clip-rule="evenodd" d="M15.25 10C15.25 12.8995 12.8995 15.25 10 15.25C7.10051 15.25 4.75 12.8995 4.75 10C4.75 7.10051 7.10051 4.75 10 4.75C12.8995 4.75 15.25 7.10051 15.25 10ZM14.1922 15.6064C13.0236 16.4816 11.5723 17 10 17C6.13401 17 3 13.866 3 10C3 6.13401 6.13401 3 10 3C13.866 3 17 6.13401 17 10C17 11.5723 16.4816 13.0236 15.6064 14.1922L21.7071 20.2929L20.2929 21.7071L14.1922 15.6064Z" fill='#949494'/>
</svg>
