<svg width="24" height="24" viewBox="0 0 24 24" fill="none" xmlns="http://www.w3.org/2000/svg">
<path d="M13.5813 2.71843L13.5814 2.71845L13.5874 2.71244C13.7343 2.56676 13.9873 2.55733 14.1523 2.71231C14.2393 2.79902 14.274 2.9138 14.2501 3.03402L13.3666 7.18789L13.1097 8.39591H14.3448H19.6048C20.9213 8.39591 21.7373 9.68643 21.2579 10.7911C21.2577 10.7915 21.2575 10.7919 21.2573 10.7924L18.2259 17.694C18.09 17.993 17.7797 18.1996 17.4263 18.1996H9.04747C8.55194 18.1996 8.18551 17.8067 8.18551 17.3837V8.31297C8.18551 8.10169 8.27191 7.89664 8.42368 7.74862L13.5813 2.71843ZM4.32354 17.3837C4.32354 17.8067 3.95711 18.1996 3.46158 18.1996C2.96604 18.1996 2.59961 17.8067 2.59961 17.3837V10.1198C2.59961 9.69679 2.96604 9.30389 3.46158 9.30389C3.95711 9.30389 4.32354 9.69679 4.32354 10.1198V17.3837Z" stroke="#949494" stroke-width="2"/>
</svg>
