<svg width="24" height="24" viewBox="0 0 24 24" fill="none" xmlns="http://www.w3.org/2000/svg">
<path d="M12.8831 2.00253L7.72548 7.03272C7.38101 7.36867 7.18551 7.83174 7.18551 8.31297V17.3837C7.18551 18.3824 8.02339 19.1996 9.04747 19.1996H17.4263C18.1711 19.1996 18.8414 18.7638 19.1393 18.101L22.1743 11.1913C22.9564 9.39346 21.6064 7.39591 19.6048 7.39591H14.3448L15.2292 3.23738C15.3223 2.78339 15.1826 2.32032 14.8475 1.99345C14.2982 1.46683 13.4231 1.46683 12.8831 2.00253ZM3.46158 19.1996C4.48566 19.1996 5.32354 18.3824 5.32354 17.3837V10.1198C5.32354 9.12107 4.48566 8.30389 3.46158 8.30389C2.43749 8.30389 1.59961 9.12107 1.59961 10.1198V17.3837C1.59961 18.3824 2.43749 19.1996 3.46158 19.1996Z" fill="#65D4A5"/>
</svg>
